0
SECTION
2
HEADER
9
$INSUNITS
70
4
9
$ACADVER
1
AC1014
9
$HANDSEED
5
FFFF
0
ENDSEC
0
SECTION
2
TABLES
0
TABLE
2
VPORT
5
8
100
AcDbSymbolTable
0
ENDTAB
0
TABLE
2
LTYPE
5
5
100
AcDbSymbolTable
0
LTYPE
5
14
100
AcDbSymbolTableRecord
100
AcDbLinetypeTableRecord
2
BYBLOCK
70
0
0
LTYPE
5
15
100
AcDbSymbolTableRecord
100
AcDbLinetypeTableRecord
2
BYLAYER
70
0
0
ENDTAB
0
TABLE
2
LAYER
5
2
100
AcDbSymbolTable
70
2
0
LAYER
5
50
100
AcDbSymbolTableRecord
100
AcDbLayerTableRecord
2
0
70
0
6
CONTINUOUS
0
ENDTAB
0
TABLE
2
STYLE
5
3
100
AcDbSymbolTable
70
1
0
STYLE
5
11
100
AcDbSymbolTableRecord
100
AcDbTextStyleTableRecord
2
STANDARD
70
0
0
ENDTAB
0
TABLE
2
VIEW
5
6
100
AcDbSymbolTable
70
0
0
ENDTAB
0
TABLE
2
UCS
5
7
100
AcDbSymbolTable
70
0
0
ENDTAB
0
TABLE
2
APPID
5
9
100
AcDbSymbolTable
70
2
0
APPID
5
12
100
AcDbSymbolTableRecord
100
AcDbRegAppTableRecord
2
ACAD
70
0
0
ENDTAB
0
TABLE
2
DIMSTYLE
5
A
100
AcDbSymbolTable
70
1
0
ENDTAB
0
TABLE
2
BLOCK_RECORD
5
1
100
AcDbSymbolTable
70
1
0
BLOCK_RECORD
5
1F
100
AcDbSymbolTableRecord
100
AcDbBlockTableRecord
2
*MODEL_SPACE
0
BLOCK_RECORD
5
1B
100
AcDbSymbolTableRecord
100
AcDbBlockTableRecord
2
*PAPER_SPACE
0
ENDTAB
0
ENDSEC
0
SECTION
2
BLOCKS
0
BLOCK
5
20
100
AcDbEntity
100
AcDbBlockBegin
2
*MODEL_SPACE
0
ENDBLK
5
21
100
AcDbEntity
100
AcDbBlockEnd
0
BLOCK
5
1C
100
AcDbEntity
100
AcDbBlockBegin
2
*PAPER_SPACE
0
ENDBLK
5
1D
100
AcDbEntity
100
AcDbBlockEnd
0
ENDSEC
0
SECTION
2
ENTITIES
0
LWPOLYLINE
5
100
100
AcDbEntity
8
0
100
AcDbPolyline
90
8
70
1
43
0.0
10
83.500000000000057
20
37.123937778040322
10
83.500000000000028
20
89.123937778040329
42
-0.41421356237309087
10
86.000000000000028
20
91.623937778040329
10
138
20
91.623937778040357
42
-0.41421356237310752
10
140.50000000000003
20
89.123937778040329
10
140.5
20
37.123937778040322
42
-0.41421356237309709
10
138.00000000000003
20
34.623937778040329
10
86.000000000000028
20
34.623937778040322
42
-0.41421356237308876
0
CIRCLE
5
101
100
AcDbEntity
8
0
100
AcDbCircle
10
111.95195523301557
20
142.14999999999958
30
0
40
7.1500000000000163
210
0
220
0
230
1
0
LWPOLYLINE
5
102
100
AcDbEntity
8
0
100
AcDbPolyline
90
8
70
1
43
0.0
10
70.000001192092881
20
174
10
70.000001192092881
20
8.9999999999999858
10
155.00000000000003
20
9
10
155.00000000000006
20
219
10
-155.00000000000006
20
219
10
-155.00000000000003
20
8.9999999999999858
10
-19.999998807907104
20
9
10
-19.999998807907112
20
174
0
LINE
5
103
100
AcDbEntity
8
0
100
AcDbLine
10
-155.00000000000003
20
8.9999999999999858
30
0
11
-145.00000000000003
21
8.9999999999999876
31
0
0
LWPOLYLINE
5
104
100
AcDbEntity
8
0
100
AcDbPolyline
90
4
70
1
43
0.0
10
-145.00000000000003
20
8.9999999999999876
10
-120.00000000000003
20
8.9999999999999876
10
-120.00000000000003
20
-1.3322676295501878e-14
10
-145.00000000000003
20
-1.3322676295501878e-14
0
LWPOLYLINE
5
105
100
AcDbEntity
8
0
100
AcDbPolyline
90
4
70
1
43
0.0
10
-19.999998807907104
20
9
10
-44.999998807907104
20
9
10
-44.999998807907104
20
0
10
-19.999998807907104
20
0
0
LWPOLYLINE
5
106
100
AcDbEntity
8
0
100
AcDbPolyline
90
4
70
1
43
0.0
10
70.000001192092881
20
8.9999999999999858
10
95.000001192092896
20
8.9999999999999858
10
95.000001192092896
20
-1.4432899320127035e-14
10
70.000001192092881
20
-1.4432899320127035e-14
0
LINE
5
107
100
AcDbEntity
8
0
100
AcDbLine
10
155.00000000000003
20
9
30
0
11
145.00000000000003
21
9.0000000000000018
31
0
0
LWPOLYLINE
5
108
100
AcDbEntity
8
0
100
AcDbPolyline
90
4
70
1
43
0.0
10
145.00000000000003
20
9.0000000000000018
10
120.00000000000003
20
9.0000000000000018
10
120.00000000000003
20
1.1102230246251565e-15
10
145.00000000000003
20
1.1102230246251565e-15
0
CIRCLE
5
109
100
AcDbEntity
8
0
100
AcDbCircle
10
87.676955233014752
20
142.15000000000055
30
0
40
1.2999999999999987
210
-1.2325951644052322e-32
220
6.1739865977046265e-31
230
1
0
CIRCLE
5
110
100
AcDbEntity
8
0
100
AcDbCircle
10
136.02695523301503
20
149.54999999999851
30
0
40
1.2999999999999987
210
-1.2325951644052322e-32
220
6.1739865977046265e-31
230
1
0
CIRCLE
5
111
100
AcDbEntity
8
0
100
AcDbCircle
10
136.02695523301441
20
134.74999999999849
30
0
40
1.2999999999999987
210
-1.2325951644052322e-32
220
6.1739865977046265e-31
230
1
0
ELLIPSE
5
112
100
AcDbEntity
8
0
100
AcDbEllipse
10
126.04283105650373
20
130.45303027996505
30
0
11
-7.2024611735754325e-30
21
-1.5500000000000007
31
0.0
40
0.99500000000000022
41
0
42
6.2831853071795862
0
ELLIPSE
5
113
100
AcDbEntity
8
0
100
AcDbEllipse
10
89.277661932928751
20
125.84999999999991
30
0
11
-7.2024611735754156e-30
21
-1.5499999999999976
31
0.0
40
0.99500000000000022
41
0
42
6.2831853071795862
0
ELLIPSE
5
114
100
AcDbEntity
8
0
100
AcDbEllipse
10
89.277661932928751
20
100.54999999999993
30
0
11
-7.2024611735754198e-30
21
-1.5499999999999985
31
0.0
40
0.99500000000000022
41
0
42
6.2831853071795862
0
ELLIPSE
5
115
100
AcDbEntity
8
0
100
AcDbEllipse
10
126.04291193292872
20
95.949999999999932
30
0
11
-7.2024611735754325e-30
21
-1.5500000000000007
31
0.0
40
0.99500000000000022
41
0
42
6.2831853071795862
0
CIRCLE
5
116
100
AcDbEntity
8
0
100
AcDbCircle
10
79.24999978765851
20
88.873937778040357
30
0
40
1.9000000000000075
210
1.1093356479670479e-31
220
-1.6898482092689259e-33
230
1
0
CIRCLE
5
117
100
AcDbEntity
8
0
100
AcDbCircle
10
144.75000021234155
20
88.873937778040357
30
0
40
1.9000000000000075
210
1.1093356479670479e-31
220
-1.6898482092689259e-33
230
1
0
CIRCLE
5
118
100
AcDbEntity
8
0
100
AcDbCircle
10
144.75000021234155
20
37.373937778040293
30
0
40
1.9000000000000075
210
1.1093356479670479e-31
220
-1.6898482092689259e-33
230
1
0
CIRCLE
5
119
100
AcDbEntity
8
0
100
AcDbCircle
10
79.24999978765851
20
37.373937778040272
30
0
40
1.9000000000000075
210
1.1093356479670479e-31
220
-1.6898482092689259e-33
230
1
0
CIRCLE
5
120
100
AcDbEntity
8
0
100
AcDbCircle
10
120.32899999999944
20
212.99699999999996
30
0
40
2.0000000000000129
210
1.2325951644078482e-32
220
-1.019834144851508e-32
230
1
0
CIRCLE
5
121
100
AcDbEntity
8
0
100
AcDbCircle
10
141.52899999999948
20
212.99700000000018
30
0
40
2.0000000000000129
210
1.2325951644078482e-32
220
-1.019834144851508e-32
230
1
0
CIRCLE
5
122
100
AcDbEntity
8
0
100
AcDbCircle
10
130.9289999999996
20
197.99700000000013
30
0
40
2.0000000000000129
210
1.2325951644078482e-32
220
-1.019834144851508e-32
230
1
0
CIRCLE
5
123
100
AcDbEntity
8
0
100
AcDbCircle
10
120.32899999999984
20
182.99700000000004
30
0
40
2.0000000000000129
210
1.2325951644078482e-32
220
-1.019834144851508e-32
230
1
0
CIRCLE
5
124
100
AcDbEntity
8
0
100
AcDbCircle
10
141.52899999999985
20
182.99700000000041
30
0
40
2.0000000000000129
210
1.2325951644078482e-32
220
-1.019834144851508e-32
230
1
0
CIRCLE
5
125
100
AcDbEntity
8
0
100
AcDbCircle
10
-140.47099992549511
20
211.99699999999552
30
0
40
2.0000000000000129
210
1.2325951644078482e-32
220
-1.019834144851508e-32
230
1
0
CIRCLE
5
126
100
AcDbEntity
8
0
100
AcDbCircle
10
-140.4709999254946
20
183.99699999999564
30
0
40
2.0000000000000129
210
1.2325951644078482e-32
220
-1.019834144851508e-32
230
1
0
CIRCLE
5
127
100
AcDbEntity
8
0
100
AcDbCircle
10
-140.47099992549511
20
211.99699999999552
30
0
40
1.5000000000000002
210
0
220
0
230
1
0
CIRCLE
5
128
100
AcDbEntity
8
0
100
AcDbCircle
10
-140.4709999254946
20
183.99699999999564
30
0
40
1.5000000000000002
210
0
220
0
230
1
0
CIRCLE
5
129
100
AcDbEntity
8
0
100
AcDbCircle
10
120.32899999999944
20
212.99699999999996
30
0
40
1.5000000000000002
210
0
220
0
230
1
0
CIRCLE
5
130
100
AcDbEntity
8
0
100
AcDbCircle
10
120.32899999999984
20
182.99700000000004
30
0
40
1.5000000000000002
210
0
220
0
230
1
0
CIRCLE
5
131
100
AcDbEntity
8
0
100
AcDbCircle
10
141.52899999999985
20
182.99700000000041
30
0
40
1.5000000000000002
210
0
220
0
230
1
0
CIRCLE
5
132
100
AcDbEntity
8
0
100
AcDbCircle
10
130.9289999999996
20
197.99700000000013
30
0
40
1.5000000000000002
210
0
220
0
230
1
0
CIRCLE
5
133
100
AcDbEntity
8
0
100
AcDbCircle
10
141.52899999999948
20
212.99700000000018
30
0
40
1.5000000000000002
210
0
220
0
230
1
0
CIRCLE
5
134
100
AcDbEntity
8
0
100
AcDbCircle
10
79.24999978765851
20
88.873937778040357
30
0
40
1.7499999999999982
210
0
220
0
230
1
0
CIRCLE
5
135
100
AcDbEntity
8
0
100
AcDbCircle
10
79.24999978765851
20
37.373937778040272
30
0
40
1.7499999999999958
210
0
220
0
230
1
0
CIRCLE
5
136
100
AcDbEntity
8
0
100
AcDbCircle
10
144.75000021234155
20
37.373937778040293
30
0
40
1.7500000000000053
210
0
220
0
230
1
0
CIRCLE
5
137
100
AcDbEntity
8
0
100
AcDbCircle
10
144.75000021234155
20
88.873937778040357
30
0
40
1.7499999999999951
210
0
220
0
230
1
0
CIRCLE
5
138
100
AcDbEntity
8
0
100
AcDbCircle
10
126.04291193292872
20
95.949999999999932
30
0
40
1.7499999999999958
210
0
220
0
230
1
0
CIRCLE
5
139
100
AcDbEntity
8
0
100
AcDbCircle
10
126.04283105650373
20
130.45303027996505
30
0
40
1.75
210
0
220
0
230
1
0
CIRCLE
5
140
100
AcDbEntity
8
0
100
AcDbCircle
10
89.277661932928751
20
125.84999999999991
30
0
40
1.7500000000000007
210
0
220
0
230
1
0
CIRCLE
5
141
100
AcDbEntity
8
0
100
AcDbCircle
10
89.277661932928751
20
100.54999999999993
30
0
40
1.7499999999999987
210
0
220
0
230
1
0
CIRCLE
5
142
100
AcDbEntity
8
0
100
AcDbCircle
10
136.02695523301441
20
134.74999999999849
30
0
40
1.5000000000000002
210
0
220
0
230
1
0
CIRCLE
5
143
100
AcDbEntity
8
0
100
AcDbCircle
10
136.02695523301503
20
149.54999999999851
30
0
40
1.4999999999999956
210
0
220
0
230
1
0
CIRCLE
5
144
100
AcDbEntity
8
0
100
AcDbCircle
10
87.676955233014752
20
142.15000000000055
30
0
40
1.4999999999999993
210
0
220
0
230
1
0
ENDSEC
0
SECTION
2
OBJECTS
0
DICTIONARY
5
C
100
AcDbDictionary
3
ACAD_GROUP
350
D
3
ACAD_MLINESTYLE
350
17
0
DICTIONARY
5
D
100
AcDbDictionary
0
DICTIONARY
5
1A
330
C
100
AcDbDictionary
0
DICTIONARY
5
17
100
AcDbDictionary
0
ENDSEC
0
EOF
